<mxfile host="app.diagrams.net" modified="2023-09-26T14:46:43.412Z" agent="Mozilla/5.0 (Windows NT 10.0; Win64; x64; rv:109.0) Gecko/20100101 Firefox/117.0" version="21.8.1" etag="Ja4A2KYjdpTeQN6Cgn90" type="github">
  <diagram name="Page-1" id="IlUtkcIfddGkZiwR4iVP">
    <mxGraphModel>
      <root>
        <mxCell id="0" />
        <mxCell id="1" parent="0" />
      </root>
    </mxGraphModel>
  </diagram>
</mxfile>
